<svg viewBox="0 0 14.5434 11.4883" xmlns="http://www.w3.org/2000/svg" xmlns:xlink="http://www.w3.org/1999/xlink" width="14.543396" height="11.488281" fill="none" customFrame="#000000">
	<path id="Vector" d="M10.5439 0C12.7531 0 14.5434 1.55251 14.5434 3.72603C14.5434 8.07306 9.08965 10.5571 7.27173 11.4886C5.45377 10.5571 0 8.07306 0 3.72603C0 1.55251 1.81793 0 3.99943 0C5.35196 0 6.54452 0.621004 7.27173 1.24201C7.99883 0.621004 9.19141 0 10.5439 0ZM7.95088 9.69015C8.59146 9.34491 9.16961 9.00149 9.71064 8.63386C11.8783 7.16207 13.089 5.55363 13.089 3.72603C13.089 2.26046 11.9714 1.24201 10.5439 1.24201C9.76148 1.24201 8.91507 1.59598 8.29987 2.12011L7.27173 2.99821L6.24347 2.12011C5.62829 1.59598 4.78186 1.24201 3.99943 1.24201C2.58872 1.24201 1.45434 2.2704 1.45434 3.72603C1.45434 5.55429 2.6658 7.16207 4.83204 8.63386C5.37378 9.00149 5.95188 9.34491 6.59252 9.68957C6.80991 9.80695 7.02519 9.91931 7.27173 10.0448C7.51818 9.91931 7.73347 9.80695 7.95088 9.69015Z" fill="rgb(4,30,66)" fill-rule="nonzero" />
</svg>
