<svg viewBox="0 0 18.7353 12.5664" xmlns="http://www.w3.org/2000/svg" xmlns:xlink="http://www.w3.org/1999/xlink" width="18.735291" height="12.566406" fill="none" customFrame="#000000">
	<path id="Vector" d="M18.1498 11.5662L17.7742 11.5662L17.7742 0.5C17.7742 0.223877 17.512 0 17.1887 0L13.6175 0C13.2942 0 13.032 0.223877 13.032 0.5L13.032 11.5662L11.7389 11.5662L11.7389 2.83325C11.7389 2.55713 11.4767 2.33325 11.1534 2.33325L7.5822 2.33325C7.25887 2.33325 6.99672 2.55713 6.99672 2.83325L6.99672 11.5662L5.70355 11.5662L5.70355 5.16663C5.70355 4.8905 5.4414 4.66663 5.11807 4.66663L1.54689 4.66663C1.22356 4.66663 0.961407 4.8905 0.961407 5.16663L0.961407 11.5662L0.585478 11.5662C0.26215 11.5662 0 11.79 0 12.0662C0 12.3423 0.26215 12.5662 0.585478 12.5662L18.1498 12.5662C18.4731 12.5662 18.7353 12.3423 18.7353 12.0662C18.7353 11.79 18.4731 11.5662 18.1498 11.5662ZM14.2028 1L16.6031 1L16.6031 11.5662L14.2028 11.5662L14.2028 1ZM8.16768 11.5662L8.16768 3.33325L10.5679 3.33325L10.5679 11.5662L8.16768 11.5662ZM2.13236 5.66663L4.53259 5.66663L4.53259 11.5662L2.13236 11.5662L2.13236 5.66663Z" fill="rgb(4,30,66)" fill-rule="nonzero" />
</svg>
