<svg viewBox="0 0 13.75 13.75" xmlns="http://www.w3.org/2000/svg" xmlns:xlink="http://www.w3.org/1999/xlink" width="13.750000" height="13.750000" fill="none">
	<rect id="next 1" width="13.750001" height="13.750001" x="0.000000" y="0.000000" fill="rgb(255,255,255)" fill-opacity="0" transform="matrix(-1,-8.74228e-08,8.74228e-08,-1,13.75,13.75)" />
	<g id="Group">
		<g id="Group">
			<path id="Vector" d="M7.26929 6.49768L0.909505 0.15549C0.701134 -0.0521828 0.363777 -0.0518337 0.155755 0.156564C-0.0521055 0.364934 -0.0515684 0.702479 0.156829 0.910313L6.13806 6.87502L0.156614 12.8397C-0.0517564 13.0476 -0.0522936 13.3849 0.15554 13.5933C0.25982 13.6978 0.396433 13.75 0.533046 13.75C0.669311 13.75 0.805387 13.6981 0.909478 13.5944L7.26929 7.25234C7.36965 7.15249 7.42596 7.0166 7.42596 6.87502C7.42596 6.73344 7.36949 6.59771 7.26929 6.49768Z" fill="rgb(17,33,55)" fill-rule="nonzero" transform="matrix(-1,-8.74228e-08,8.74228e-08,-1,10.5879,13.75)" />
		</g>
	</g>
</svg>
