<svg viewBox="0 0 15.9229 15" xmlns="http://www.w3.org/2000/svg" xmlns:xlink="http://www.w3.org/1999/xlink" width="15.922852" height="15.000000" fill="none" customFrame="#000000">
	<g id="number">
		<ellipse id="Ellipse 1" rx="7.961475" ry="7.500000" cx="7.96196365" cy="7.5" fill="rgb(245,195,75)" />
		<path id="2" d="M5.78018 10.9091L5.78018 10.0227L7.85121 8.10511C8.02734 7.93466 8.17507 7.78125 8.29439 7.64489C8.4156 7.50852 8.50746 7.375 8.56996 7.24432C8.63246 7.11174 8.66371 6.96875 8.66371 6.81534C8.66371 6.64489 8.62488 6.49811 8.54723 6.375C8.46958 6.25 8.36352 6.15436 8.22905 6.08807C8.09458 6.01989 7.94212 5.9858 7.77166 5.9858C7.59363 5.9858 7.43833 6.02178 7.30575 6.09375C7.17318 6.16572 7.0709 6.26894 6.99893 6.40341C6.92696 6.53788 6.89098 6.69792 6.89098 6.88352L5.72337 6.88352C5.72337 6.50284 5.80954 6.17235 5.98189 5.89205C6.15424 5.61174 6.39571 5.39489 6.70632 5.24148C7.01693 5.08807 7.37488 5.01136 7.78018 5.01136C8.19685 5.01136 8.55954 5.08523 8.86825 5.23295C9.17886 5.37879 9.42034 5.58144 9.59268 5.84091C9.76503 6.10038 9.85121 6.39773 9.85121 6.73295C9.85121 6.95265 9.80765 7.16951 9.72053 7.38352C9.6353 7.59754 9.48284 7.83523 9.26314 8.09659C9.04344 8.35606 8.73378 8.66761 8.33416 9.03125L7.48473 9.86364L7.48473 9.90341L9.92791 9.90341L9.92791 10.9091L5.78018 10.9091Z" fill="rgb(11,30,64)" fill-rule="nonzero" />
	</g>
</svg>
